:FULLY-SPECIFIED
:FORCE-ALL-JOINTS-BE-3DOF
:DEGREES
816
root -4.50688 14.673 -40.19 435.012 -69.0639 292.664
lfemur -68.0227 18.929 -15.899
ltibia 80.921 0 0
lfoot -5.53979 5.58923 0
ltoes -14.5707 0 0
rfemur -24.4679 -7.0188 18.084
rtibia 69.4867 0 0
rfoot -30.3702 -24.4961 0
rtoes -24.0212 0 0
lowerback 16.7464 1.07449 3.68197
upperback -0.0518094 2.28753 2.19752
thorax -9.47109 0.940865 -0.250617
lowerneck -2.60326 11.0317 4.04619
upperneck -0.477409 14.6604 -6.49843
head 1.22935 7.30156 -2.37021
lclavicle -2.71022e-15 -3.65471e-15 0
lhumerus 90.8535 -17.4449 44.9819
lradius 70.4003 0 0
lwrist -8.52734 0 0
lhand -16.0182 26.093 0
lfingers 7.12502 0 0
lthumb 10.1747 55.6214 0
rclavicle -2.71022e-15 -3.65471e-15 0
rhumerus -1.51086 31.7907 -64.6781
rradius 75.7326 0 0
rwrist -21.6805 0 0
rhand -5.67152 -38.7457 0
rfingers 7.12502 0 0
rthumb 20.1138 -67.3418 0
817
root -4.33782 14.6943 -40.2403 426.299 -69.6241 301.704
lfemur -68.4442 19.2245 -17.2834
ltibia 82.0895 0 0
lfoot -5.98055 6.29514 0
ltoes -14.7033 0 0
rfemur -26.1173 -7.5118 19.0458
rtibia 69.8578 0 0
rfoot -30.8537 -25.0257 0
rtoes -23.6783 0 0
lowerback 17.0219 0.953213 3.87864
upperback 0.00944999 2.16208 2.02551
thorax -9.54394 0.866927 -0.524536
lowerneck -2.53144 11.3792 4.24976
upperneck -0.672916 15.1239 -6.9892
head 1.23199 7.53191 -2.54681
lclavicle -1.40705e-15 -1.67214e-15 0
lhumerus 93.5901 -20.4743 39.9588
lradius 76.1103 0 0
lwrist -3.78872 0 0
lhand -14.8042 25.6172 0
lfingers 7.12502 0 0
lthumb 11.3461 55.102 0
rclavicle -1.40705e-15 -1.67214e-15 0
rhumerus 3.89364 33.194 -63.2737
rradius 73.8427 0 0
rwrist -19.4143 0 0
rhand -7.08994 -38.9899 0
rfingers 7.12502 0 0
rthumb 18.7542 -67.7659 0
818
root -4.16876 14.7155 -40.2906 416.954 -70.2273 311.398
lfemur -68.8931 19.5308 -18.7704
ltibia 83.3344 0 0
lfoot -6.444 7.06047 0
ltoes -14.8559 0 0
rfemur -27.9092 -8.03118 20.0748
rtibia 70.2873 0 0
rfoot -31.3738 -25.5843 0
rtoes -23.3058 0 0
lowerback 17.3205 0.82407 4.08132
upperback 0.0765132 2.02764 1.83859
thorax -9.62268 0.788081 -0.816431
lowerneck -2.45391 11.7554 4.46903
upperneck -0.885308 15.6257 -7.5185
head 1.23416 7.78123 -2.7372
lclavicle -6.18993e-17 4.63863e-16 0
lhumerus 96.5293 -23.7296 34.5532
lradius 82.2431 0 0
lwrist 1.32501 0 0
lhand -13.4953 25.1014 0
lfingers 7.12502 0 0
lthumb 12.609 54.5394 0
rclavicle -6.18993e-17 4.63863e-16 0
rhumerus 9.72018 34.6994 -61.7454
rradius 71.7921 0 0
rwrist -16.9611 0 0
rhand -8.60235 -39.2567 0
rfingers 7.12502 0 0
rthumb 17.3046 -68.2239 0
819
root -3.99969 14.7367 -40.3409 406.955 -70.8752 321.768
lfemur -69.3701 19.8479 -20.3639
ltibia 84.6583 0 0
lfoot -6.93066 7.88765 0
ltoes -15.0297 0 0
rfemur -29.8497 -8.57762 21.1733
rtibia 70.7781 0 0
rfoot -31.9321 -26.1727 0
rtoes -22.9024 0 0
lowerback 17.6432 0.686802 4.28995
upperback 0.149637 1.88388 1.63615
thorax -9.70754 0.70416 -1.1269
lowerneck -2.37046 12.1613 4.7046
upperneck -1.11529 16.1673 -8.08782
head 1.23584 8.05031 -2.94192
lclavicle 1.32511e-15 2.75925e-15 0
lhumerus 99.6788 -27.2194 28.7504
lradius 88.8144 0 0
lwrist 6.82867 0 0
lhand -12.0879 24.544 0
lfingers 7.12502 0 0
lthumb 13.9669 53.9319 0
rclavicle 1.32511e-15 2.75925e-15 0
rhumerus 15.9852 36.3107 -60.088
rradius 69.5742 0 0
rwrist -14.3135 0 0
rhand -10.2119 -39.5469 0
rfingers 7.12502 0 0
rthumb 15.7618 -68.7171 0
820
root -3.83063 14.758 -40.3912 396.279 -71.5693 332.84
lfemur -69.8762 20.1759 -22.0677
ltibia 86.0637 0 0
lfoot -7.44109 8.77913 0
ltoes -15.2258 0 0
rfemur -31.9448 -9.15178 22.3439
rtibia 71.3336 0 0
rfoot -32.5298 -26.7916 0
rtoes -22.4669 0 0
lowerback 17.9909 0.54115 4.50449
upperback 0.229079 1.73046 1.41755
thorax -9.79877 0.614999 -1.45655
lowerneck -2.28086 12.5983 4.95709
upperneck -1.36358 16.7502 -8.69868
head 1.23697 8.33992 -3.16153
lclavicle 2.75385e-15 5.21997e-15 0
lhumerus 103.046 -30.9522 22.5359
lradius 95.8401 0 0
lwrist 12.7371 0 0
lhand -10.5783 23.9431 0
lfingers 7.12502 0 0
lthumb 15.4235 53.2776 0
rclavicle 2.75385e-15 5.21997e-15 0
rhumerus 22.7053 38.0315 -58.2962
rradius 67.1824 0 0
rwrist -11.4639 0 0
rhand -11.9218 -39.8616 0
rfingers 7.12502 0 0
rthumb 14.1227 -69.247 0
821
root -3.66157 14.7792 -40.4415 384.902 -72.3114 344.638
lfemur -70.4123 20.5148 -23.8857
ltibia 87.5532 0 0
lfoot -7.97581 9.73737 0
ltoes -15.4451 0 0
rfemur -34.2003 -9.75434 23.5888
rtibia 71.9567 0 0
rfoot -33.1684 -27.4419 0
rtoes -21.998 0 0
lowerback 18.3645 0.386855 4.72491
upperback 0.315096 1.56706 1.18217
thorax -9.8966 0.520432 -1.80598
lowerneck -2.18488 13.0674 5.22711
upperneck -1.63087 17.3761 -9.35259
head 1.23752 8.65083 -3.39655
lclavicle 4.22417e-15 7.85199e-15 0
lhumerus 106.639 -34.9364 15.8949
lradius 103.336 0 0
lwrist 19.065 0 0
lhand -8.96267 23.2973 0
lfingers 7.12502 0 0
lthumb 16.9824 52.5749 0
rclavicle 4.22417e-15 7.85199e-15 0
rhumerus 29.8969 39.8657 -56.3648
rradius 64.61 0 0
rwrist -8.40454 0 0
rhand -13.7352 -40.2017 0
rfingers 7.12502 0 0
rthumb 12.3844 -69.8148 0
822
root -3.61451 14.7793 -40.3799 383.123 -72.0192 346.37
lfemur -70.1687 20.5571 -23.7844
ltibia 87.3179 0 0
lfoot -7.88205 9.81779 0
ltoes -15.4408 0 0
rfemur -34.2159 -9.8792 23.6154
rtibia 71.8915 0 0
rfoot -33.1354 -27.5557 0
rtoes -21.9286 0 0
lowerback 18.3771 0.382331 4.72884
upperback 0.312735 1.56091 1.15843
thorax -9.90443 0.51696 -1.83288
lowerneck -2.21288 13.0775 5.22149
upperneck -1.5848 17.3906 -9.35711
head 1.25788 8.65737 -3.39405
lclavicle 3.65839e-15 8.13889e-15 0
lhumerus 105.907 -35.1196 15.5063
lradius 103.674 0 0
lwrist 19.4602 0 0
lhand -9.11081 23.3812 0
lfingers 7.12502 0 0
lthumb 16.8394 52.6536 0
rclavicle 3.65839e-15 8.13889e-15 0
rhumerus 29.6801 39.8463 -56.5373
rradius 64.8375 0 0
rwrist -8.61803 0 0
rhand -13.9594 -40.0563 0
rfingers 7.12502 0 0
rthumb 12.1697 -69.7006 0
